<svg width="362" height="130" viewBox="0 0 362 130" fill="none" xmlns="http://www.w3.org/2000/svg">
<path d="M-6.08823e-06 29.0809L11.2158 0.801133H16.9038L27.9993 29.0809H21.35L12.8581 5.60789H15.1413L6.52917 29.0809H-6.08823e-06ZM6.36895 23.9537V18.8265H21.7906V23.9537H6.36895ZM30.9917 29.0809V0.801133H37.2805V29.0809H30.9917ZM42.1661 21.5503V16.1828H56.3461V21.5503H42.1661ZM65.4755 29.0809V23.5531H72.4853C74.1944 23.5531 75.6898 23.2193 76.9716 22.5517C78.2534 21.8574 79.2415 20.856 79.9358 19.5475C80.6301 18.239 80.9772 16.6901 80.9772 14.901C80.9772 13.1118 80.6167 11.5763 79.8957 10.2945C79.2014 9.01267 78.2134 8.02462 76.9316 7.33031C75.6765 6.636 74.1944 6.28885 72.4853 6.28885H65.2752V0.801133H72.5654C74.7018 0.801133 76.6645 1.14829 78.4537 1.8426C80.2696 2.5102 81.8451 3.4849 83.1803 4.76671C84.5423 6.0218 85.5837 7.51724 86.3047 9.25301C87.0524 10.9621 87.4263 12.8581 87.4263 14.941C87.4263 16.9972 87.0524 18.8932 86.3047 20.629C85.5837 22.3648 84.5556 23.8602 83.2204 25.1153C81.8852 26.3704 80.3096 27.3451 78.4937 28.0394C76.7046 28.7337 74.7552 29.0809 72.6455 29.0809H65.4755ZM61.2295 29.0809V0.801133H67.5183V29.0809H61.2295ZM90.8674 29.0809V9.61352H96.996V29.0809H90.8674ZM96.996 18.3858L94.4324 16.383C94.9398 14.1132 95.7943 12.3507 96.996 11.0956C98.1977 9.8405 99.8667 9.21296 102.003 9.21296C102.938 9.21296 103.752 9.35983 104.446 9.65358C105.167 9.92062 105.795 10.3479 106.329 10.9354L102.684 15.5419C102.417 15.2481 102.083 15.0211 101.683 14.8609C101.282 14.7007 100.828 14.6206 100.321 14.6206C99.3059 14.6206 98.4914 14.941 97.8772 15.5819C97.2897 16.1961 96.996 17.1308 96.996 18.3858ZM107.962 29.0809V9.61352H114.09V29.0809H107.962ZM111.046 6.92975C110.085 6.92975 109.284 6.6093 108.643 5.9684C108.028 5.30079 107.721 4.49966 107.721 3.56502C107.721 2.60367 108.028 1.80254 108.643 1.16164C109.284 0.52074 110.085 0.200289 111.046 0.200289C112.007 0.200289 112.795 0.52074 113.409 1.16164C114.024 1.80254 114.331 2.60367 114.331 3.56502C114.331 4.49966 114.024 5.30079 113.409 5.9684C112.795 6.6093 112.007 6.92975 111.046 6.92975ZM124.535 29.0809L116.283 9.61352H122.892L128.5 25.8363H125.616L131.224 9.61352H137.713L129.462 29.0809H124.535ZM148.987 29.5215C146.877 29.5215 144.994 29.0942 143.339 28.2397C141.71 27.3585 140.428 26.1434 139.493 24.5946C138.559 23.0457 138.091 21.2966 138.091 19.3472C138.091 17.3978 138.545 15.662 139.453 14.1399C140.388 12.591 141.643 11.376 143.218 10.4948C144.794 9.61352 146.57 9.1729 148.546 9.1729C150.469 9.1729 152.164 9.58681 153.633 10.4146C155.102 11.2425 156.25 12.3908 157.078 13.8595C157.932 15.3282 158.36 17.0106 158.36 18.9066C158.36 19.2537 158.333 19.6276 158.28 20.0282C158.253 20.402 158.186 20.8426 158.079 21.35L141.296 21.3901V17.1842L155.476 17.1441L152.832 18.9066C152.805 17.785 152.632 16.8637 152.311 16.1427C151.991 15.395 151.51 14.8342 150.869 14.4603C150.255 14.0598 149.494 13.8595 148.586 13.8595C147.625 13.8595 146.783 14.0865 146.062 14.5404C145.368 14.9677 144.821 15.5819 144.42 16.383C144.046 17.1842 143.859 18.1589 143.859 19.3071C143.859 20.4554 144.06 21.4435 144.46 22.2713C144.887 23.0724 145.475 23.7 146.223 24.154C146.997 24.5812 147.905 24.7949 148.947 24.7949C149.908 24.7949 150.776 24.6346 151.55 24.3142C152.325 23.967 153.006 23.4596 153.593 22.792L156.958 26.1568C155.996 27.2783 154.835 28.1195 153.473 28.6803C152.111 29.2411 150.616 29.5215 148.987 29.5215ZM174.176 29.0809V17.9853C174.176 16.9705 173.856 16.156 173.215 15.5419C172.6 14.9009 171.813 14.5805 170.851 14.5805C170.184 14.5805 169.596 14.7274 169.089 15.0211C168.582 15.2882 168.181 15.6887 167.887 16.2228C167.593 16.7302 167.447 17.3177 167.447 17.9853L165.083 16.8237C165.083 15.3015 165.417 13.9663 166.085 12.818C166.752 11.6697 167.674 10.7885 168.849 10.1743C170.05 9.53341 171.399 9.21296 172.894 9.21296C174.336 9.21296 175.605 9.56011 176.7 10.2544C177.821 10.922 178.702 11.8166 179.343 12.9382C179.984 14.0598 180.305 15.2882 180.305 16.6234V29.0809H174.176ZM161.318 29.0809V9.61352H167.447V29.0809H161.318Z" fill="url(#paint0_linear_32_66)"/>
<path d="M200.921 29.5215C198.598 29.5215 196.595 29.1476 194.913 28.3999C193.257 27.6255 191.735 26.4639 190.347 24.915L194.432 20.8693C195.34 21.9108 196.342 22.7253 197.437 23.3128C198.558 23.8736 199.853 24.154 201.322 24.154C202.657 24.154 203.685 23.9136 204.406 23.4329C205.154 22.9523 205.528 22.2847 205.528 21.4301C205.528 20.6557 205.288 20.0282 204.807 19.5475C204.326 19.0668 203.685 18.6529 202.884 18.3057C202.11 17.9586 201.242 17.6248 200.281 17.3043C199.346 16.9839 198.411 16.6234 197.477 16.2228C196.542 15.7955 195.674 15.2748 194.873 14.6606C194.099 14.0197 193.471 13.2319 192.99 12.2973C192.51 11.3359 192.269 10.1343 192.269 8.69222C192.269 6.95645 192.683 5.46102 193.511 4.20592C194.366 2.95082 195.541 2.00282 197.036 1.36192C198.531 0.694317 200.254 0.360515 202.203 0.360515C204.179 0.360515 205.982 0.707669 207.611 1.40198C209.266 2.09629 210.628 3.04429 211.697 4.24598L207.611 8.29166C206.756 7.41042 205.888 6.75617 205.007 6.3289C204.153 5.90163 203.178 5.688 202.083 5.688C200.988 5.688 200.12 5.90163 199.479 6.3289C198.839 6.72947 198.518 7.31696 198.518 8.09138C198.518 8.81239 198.758 9.39989 199.239 9.85386C199.72 10.2811 200.347 10.655 201.122 10.9754C201.923 11.2959 202.791 11.6163 203.725 11.9368C204.687 12.2572 205.635 12.6311 206.569 13.0584C207.504 13.4856 208.359 14.0331 209.133 14.7007C209.934 15.3416 210.575 16.1694 211.056 17.1842C211.536 18.1722 211.777 19.4006 211.777 20.8693C211.777 23.5665 210.815 25.6894 208.893 27.2383C206.97 28.7604 204.313 29.5215 200.921 29.5215ZM224.718 29.5215C222.608 29.5215 220.726 29.0942 219.07 28.2397C217.441 27.3585 216.159 26.1434 215.225 24.5946C214.29 23.0457 213.823 21.2966 213.823 19.3472C213.823 17.3978 214.277 15.662 215.185 14.1399C216.119 12.591 217.374 11.376 218.95 10.4948C220.525 9.61352 222.301 9.1729 224.277 9.1729C226.2 9.1729 227.896 9.58681 229.365 10.4146C230.833 11.2425 231.982 12.3908 232.809 13.8595C233.664 15.3282 234.091 17.0106 234.091 18.9066C234.091 19.2537 234.064 19.6276 234.011 20.0282C233.984 20.402 233.918 20.8426 233.811 21.35L217.027 21.3901V17.1842L231.207 17.1441L228.563 18.9066C228.537 17.785 228.363 16.8637 228.043 16.1427C227.722 15.395 227.242 14.8342 226.601 14.4603C225.986 14.0598 225.225 13.8595 224.317 13.8595C223.356 13.8595 222.515 14.0865 221.794 14.5404C221.1 14.9677 220.552 15.5819 220.152 16.383C219.778 17.1842 219.591 18.1589 219.591 19.3071C219.591 20.4554 219.791 21.4435 220.192 22.2713C220.619 23.0724 221.206 23.7 221.954 24.154C222.729 24.5812 223.636 24.7949 224.678 24.7949C225.639 24.7949 226.507 24.6346 227.282 24.3142C228.056 23.967 228.737 23.4596 229.324 22.792L232.689 26.1568C231.728 27.2783 230.566 28.1195 229.204 28.6803C227.842 29.2411 226.347 29.5215 224.718 29.5215ZM245.181 29.4814C243.392 29.4814 241.789 29.0408 240.374 28.1596C238.985 27.2783 237.877 26.0767 237.049 24.5545C236.248 23.0324 235.848 21.2966 235.848 19.3472C235.848 17.3978 236.248 15.662 237.049 14.1399C237.877 12.6177 238.985 11.4161 240.374 10.5348C241.789 9.65357 243.392 9.21296 245.181 9.21296C246.489 9.21296 247.664 9.46665 248.706 9.97403C249.774 10.4814 250.642 11.1891 251.309 12.097C251.977 12.9782 252.351 13.993 252.431 15.1413V23.5531C252.351 24.7014 251.977 25.7295 251.309 26.6374C250.669 27.5187 249.814 28.213 248.746 28.7204C247.678 29.2278 246.489 29.4814 245.181 29.4814ZM246.423 23.9537C247.731 23.9537 248.786 23.5264 249.587 22.6719C250.388 21.7906 250.789 20.6824 250.789 19.3472C250.789 18.4393 250.602 17.6381 250.228 16.9438C249.881 16.2495 249.373 15.7154 248.706 15.3416C248.065 14.941 247.317 14.7407 246.463 14.7407C245.608 14.7407 244.847 14.941 244.179 15.3416C243.539 15.7154 243.018 16.2495 242.617 16.9438C242.243 17.6381 242.056 18.4393 242.056 19.3472C242.056 20.2284 242.243 21.0162 242.617 21.7105C242.991 22.4048 243.512 22.9523 244.179 23.3528C244.847 23.7534 245.595 23.9537 246.423 23.9537ZM250.548 29.0809V23.8335L251.47 19.1069L250.548 14.3802V9.61352H256.557V29.0809H250.548ZM260.872 29.0809V9.61352H267.001V29.0809H260.872ZM273.329 29.0809V17.7049C273.329 16.7168 273.022 15.9558 272.408 15.4217C271.821 14.8609 271.086 14.5805 270.205 14.5805C269.591 14.5805 269.043 14.714 268.563 14.9811C268.082 15.2214 267.695 15.5686 267.401 16.0225C267.134 16.4765 267.001 17.0373 267.001 17.7049L264.637 16.6634C264.637 15.1146 264.971 13.7927 265.639 12.6979C266.306 11.5763 267.214 10.7217 268.362 10.1343C269.511 9.52005 270.806 9.21296 272.248 9.21296C273.61 9.21296 274.825 9.52005 275.893 10.1343C276.988 10.7484 277.856 11.603 278.497 12.6979C279.138 13.7927 279.458 15.1012 279.458 16.6234V29.0809H273.329ZM285.787 29.0809V17.7049C285.787 16.7168 285.48 15.9558 284.866 15.4217C284.278 14.8609 283.544 14.5805 282.663 14.5805C282.048 14.5805 281.501 14.714 281.02 14.9811C280.54 15.2214 280.152 15.5686 279.859 16.0225C279.592 16.4765 279.458 17.0373 279.458 17.7049L275.933 17.2242C275.987 15.5686 276.374 14.1532 277.095 12.9782C277.842 11.7766 278.817 10.8553 280.019 10.2144C281.247 9.54676 282.623 9.21296 284.145 9.21296C285.64 9.21296 286.962 9.53341 288.11 10.1743C289.285 10.7885 290.207 11.6831 290.874 12.8581C291.568 14.0064 291.916 15.395 291.916 17.0239V29.0809H285.787ZM295.843 29.0809V8.11764e-06H301.972V29.0809H295.843ZM315.901 29.5215C313.791 29.5215 311.909 29.0942 310.253 28.2397C308.624 27.3585 307.342 26.1434 306.407 24.5946C305.473 23.0457 305.006 21.2966 305.006 19.3472C305.006 17.3978 305.459 15.662 306.367 14.1399C307.302 12.591 308.557 11.376 310.133 10.4948C311.708 9.61352 313.484 9.1729 315.46 9.1729C317.383 9.1729 319.079 9.58681 320.547 10.4146C322.016 11.2425 323.164 12.3908 323.992 13.8595C324.847 15.3282 325.274 17.0106 325.274 18.9066C325.274 19.2537 325.247 19.6276 325.194 20.0282C325.167 20.402 325.1 20.8426 324.994 21.35L308.21 21.3901V17.1842L322.39 17.1441L319.746 18.9066C319.72 17.785 319.546 16.8637 319.226 16.1427C318.905 15.395 318.424 14.8342 317.783 14.4603C317.169 14.0598 316.408 13.8595 315.5 13.8595C314.539 13.8595 313.698 14.0865 312.977 14.5404C312.282 14.9677 311.735 15.5819 311.334 16.383C310.961 17.1842 310.774 18.1589 310.774 19.3071C310.774 20.4554 310.974 21.4435 311.374 22.2713C311.802 23.0724 312.389 23.7 313.137 24.154C313.911 24.5812 314.819 24.7949 315.861 24.7949C316.822 24.7949 317.69 24.6346 318.464 24.3142C319.239 23.967 319.92 23.4596 320.507 22.792L323.872 26.1568C322.911 27.2783 321.749 28.1195 320.387 28.6803C319.025 29.2411 317.53 29.5215 315.901 29.5215ZM335.322 29.5616C334.174 29.5616 333.039 29.4147 331.917 29.1209C330.823 28.8272 329.794 28.4133 328.833 27.8792C327.898 27.3184 327.097 26.6775 326.43 25.9565L329.915 22.4315C330.555 23.1258 331.317 23.6733 332.198 24.0738C333.079 24.4477 334.04 24.6346 335.082 24.6346C335.803 24.6346 336.35 24.5278 336.724 24.3142C337.125 24.1005 337.325 23.8068 337.325 23.4329C337.325 22.9523 337.085 22.5918 336.604 22.3514C336.15 22.0844 335.563 21.8574 334.842 21.6705C334.121 21.4568 333.359 21.2298 332.558 20.9895C331.757 20.7492 330.996 20.4154 330.275 19.9881C329.554 19.5608 328.967 18.9733 328.513 18.2256C328.059 17.4512 327.832 16.4765 327.832 15.3015C327.832 14.0464 328.152 12.9649 328.793 12.057C329.434 11.1223 330.342 10.3879 331.517 9.85386C332.692 9.31977 334.067 9.05273 335.643 9.05273C337.298 9.05273 338.82 9.34648 340.209 9.93397C341.624 10.4948 342.773 11.3359 343.654 12.4575L340.169 15.9825C339.555 15.2615 338.861 14.7541 338.086 14.4603C337.338 14.1666 336.604 14.0197 335.883 14.0197C335.189 14.0197 334.668 14.1265 334.321 14.3402C333.974 14.5271 333.8 14.8075 333.8 15.1813C333.8 15.5819 334.027 15.9024 334.481 16.1427C334.935 16.383 335.522 16.5967 336.243 16.7836C336.965 16.9705 337.726 17.1975 338.527 17.4646C339.328 17.7316 340.089 18.0921 340.81 18.5461C341.531 19 342.118 19.6142 342.572 20.3887C343.026 21.1364 343.253 22.1244 343.253 23.3528C343.253 25.2488 342.532 26.7576 341.09 27.8792C339.675 29.0008 337.752 29.5616 335.322 29.5616ZM353.668 29.5616C352.52 29.5616 351.385 29.4147 350.264 29.1209C349.169 28.8272 348.141 28.4133 347.179 27.8792C346.245 27.3184 345.443 26.6775 344.776 25.9565L348.261 22.4315C348.902 23.1258 349.663 23.6733 350.544 24.0738C351.425 24.4477 352.386 24.6346 353.428 24.6346C354.149 24.6346 354.696 24.5278 355.07 24.3142C355.471 24.1005 355.671 23.8068 355.671 23.4329C355.671 22.9523 355.431 22.5918 354.95 22.3514C354.496 22.0844 353.909 21.8574 353.188 21.6705C352.467 21.4568 351.706 21.2298 350.904 20.9895C350.103 20.7492 349.342 20.4154 348.621 19.9881C347.9 19.5608 347.313 18.9733 346.859 18.2256C346.405 17.4512 346.178 16.4765 346.178 15.3015C346.178 14.0464 346.498 12.9649 347.139 12.057C347.78 11.1223 348.688 10.3879 349.863 9.85386C351.038 9.31977 352.413 9.05273 353.989 9.05273C355.644 9.05273 357.167 9.34648 358.555 9.93397C359.97 10.4948 361.119 11.3359 362 12.4575L358.515 15.9825C357.901 15.2615 357.207 14.7541 356.432 14.4603C355.684 14.1666 354.95 14.0197 354.229 14.0197C353.535 14.0197 353.014 14.1265 352.667 14.3402C352.32 14.5271 352.146 14.8075 352.146 15.1813C352.146 15.5819 352.373 15.9024 352.827 16.1427C353.281 16.383 353.869 16.5967 354.59 16.7836C355.311 16.9705 356.072 17.1975 356.873 17.4646C357.674 17.7316 358.435 18.0921 359.156 18.5461C359.877 19 360.465 19.6142 360.918 20.3887C361.372 21.1364 361.599 22.1244 361.599 23.3528C361.599 25.2488 360.878 26.7576 359.436 27.8792C358.021 29.0008 356.098 29.5616 353.668 29.5616ZM-6.08823e-06 79.1512L11.2158 50.8715H16.9038L27.9993 79.1512H21.35L12.8581 55.6783H15.1413L6.52917 79.1512H-6.08823e-06ZM6.36895 74.024V68.8968H21.7906V74.024H6.36895ZM35.7984 68.8568V63.9699H41.887C42.6614 63.9699 43.3691 63.8097 44.01 63.4892C44.6509 63.1688 45.1583 62.7015 45.5321 62.0873C45.906 61.4731 46.0929 60.7254 46.0929 59.8441C46.0929 58.9896 45.906 58.2552 45.5321 57.641C45.1583 57.0268 44.6509 56.5595 44.01 56.239C43.3691 55.9186 42.6614 55.7584 41.887 55.7584H35.7984V50.8715H42.8083C44.5975 50.8715 46.2131 51.232 47.6551 51.953C49.0971 52.674 50.2321 53.7155 51.0599 55.0774C51.9144 56.4126 52.3417 58.0015 52.3417 59.8441C52.3417 61.6867 51.9144 63.289 51.0599 64.6509C50.2321 65.9861 49.0971 67.0275 47.6551 67.7753C46.2131 68.4963 44.5975 68.8568 42.8083 68.8568H35.7984ZM30.9917 79.1512V50.8715H37.2805V79.1512H30.9917ZM55.8704 79.1512V50.8715H62.1592V79.1512H55.8704ZM75.2335 79.1512V50.8715H81.5224V79.1512H75.2335ZM99.2661 79.1512V68.0557C99.2661 67.0409 98.9456 66.2264 98.3047 65.6122C97.6905 64.9713 96.9027 64.6509 95.9414 64.6509C95.2738 64.6509 94.6863 64.7977 94.1789 65.0915C93.6715 65.3585 93.271 65.7591 92.9772 66.2932C92.6835 66.8006 92.5366 67.388 92.5366 68.0557L90.1733 66.894C90.1733 65.3719 90.5071 64.0367 91.1747 62.8884C91.8423 61.7401 92.7636 60.8589 93.9386 60.2447C95.1403 59.6038 96.4888 59.2833 97.9843 59.2833C99.4263 59.2833 100.695 59.6305 101.79 60.3248C102.911 60.9924 103.792 61.887 104.433 63.0086C105.074 64.1301 105.395 65.3585 105.395 66.6937V79.1512H99.2661ZM86.408 79.1512V59.6839H92.5366V79.1512H86.408ZM111.86 79.1512V51.6326H117.989V79.1512H111.86ZM107.454 64.8912V59.6839H122.395V64.8912H107.454ZM134.318 79.5919C132.208 79.5919 130.325 79.1646 128.67 78.3101C127.041 77.4288 125.759 76.2138 124.824 74.6649C123.89 73.1161 123.422 71.367 123.422 69.4176C123.422 67.4682 123.876 65.7324 124.784 64.2102C125.719 62.6614 126.974 61.4464 128.549 60.5651C130.125 59.6839 131.901 59.2433 133.877 59.2433C135.8 59.2433 137.495 59.6572 138.964 60.485C140.433 61.3128 141.581 62.4611 142.409 63.9299C143.263 65.3986 143.691 67.081 143.691 68.9769C143.691 69.3241 143.664 69.698 143.611 70.0985C143.584 70.4724 143.517 70.913 143.41 71.4204L126.627 71.4604V67.2545L140.807 67.2145L138.163 68.9769C138.136 67.8554 137.963 66.9341 137.642 66.2131C137.322 65.4653 136.841 64.9046 136.2 64.5307C135.586 64.1301 134.825 63.9299 133.917 63.9299C132.956 63.9299 132.114 64.1568 131.393 64.6108C130.699 65.0381 130.152 65.6523 129.751 66.4534C129.377 67.2545 129.19 68.2292 129.19 69.3775C129.19 70.5258 129.391 71.5138 129.791 72.3417C130.218 73.1428 130.806 73.7704 131.554 74.2243C132.328 74.6516 133.236 74.8652 134.277 74.8652C135.239 74.8652 136.107 74.705 136.881 74.3845C137.656 74.0374 138.336 73.53 138.924 72.8624L142.289 76.2271C141.327 77.3487 140.166 78.1899 138.804 78.7507C137.442 79.3115 135.946 79.5919 134.318 79.5919ZM154.901 87.8835C152.764 87.8835 150.882 87.5097 149.253 86.7619C147.65 86.0409 146.382 85.0128 145.447 83.6776L149.213 79.9123C149.907 80.7401 150.681 81.3677 151.536 81.795C152.417 82.2222 153.472 82.4359 154.7 82.4359C156.222 82.4359 157.411 82.062 158.265 81.3143C159.146 80.5666 159.587 79.5118 159.587 78.1498V73.1829L160.629 68.9369L159.707 64.6909V59.6839H165.716V77.9896C165.716 79.9924 165.248 81.7282 164.314 83.1969C163.379 84.6657 162.097 85.8139 160.468 86.6418C158.839 87.4696 156.983 87.8835 154.901 87.8835ZM154.62 78.5504C152.831 78.5504 151.242 78.1231 149.853 77.2686C148.465 76.4141 147.37 75.2524 146.569 73.7837C145.768 72.315 145.367 70.686 145.367 68.8968C145.367 67.081 145.768 65.452 146.569 64.01C147.37 62.5412 148.465 61.393 149.853 60.5651C151.242 59.7106 152.831 59.2833 154.62 59.2833C155.955 59.2833 157.144 59.537 158.185 60.0444C159.253 60.5251 160.108 61.2194 160.749 62.1273C161.416 63.0086 161.79 64.0367 161.87 65.2117V72.6221C161.79 73.7704 161.416 74.7985 160.749 75.7064C160.108 76.5876 159.253 77.282 158.185 77.7893C157.117 78.2967 155.929 78.5504 154.62 78.5504ZM155.782 73.1027C156.636 73.1027 157.371 72.9158 157.985 72.542C158.626 72.1681 159.106 71.6741 159.427 71.0599C159.774 70.419 159.948 69.698 159.948 68.8968C159.948 68.0957 159.774 67.3747 159.427 66.7338C159.106 66.0929 158.626 65.5855 157.985 65.2117C157.371 64.8378 156.636 64.6509 155.782 64.6509C154.954 64.6509 154.22 64.8378 153.579 65.2117C152.938 65.5855 152.444 66.0929 152.097 66.7338C151.749 67.3747 151.576 68.0957 151.576 68.8968C151.576 69.6446 151.749 70.3522 152.097 71.0198C152.444 71.6607 152.924 72.1681 153.539 72.542C154.179 72.9158 154.927 73.1027 155.782 73.1027ZM170.041 79.1512V59.6839H176.17V79.1512H170.041ZM176.17 68.4562L173.606 66.4534C174.114 64.1835 174.968 62.4211 176.17 61.166C177.371 59.9109 179.04 59.2833 181.177 59.2833C182.111 59.2833 182.926 59.4302 183.62 59.7239C184.341 59.991 184.969 60.4183 185.503 61.0057L181.858 65.6122C181.591 65.3185 181.257 65.0915 180.856 64.9313C180.456 64.771 180.002 64.6909 179.494 64.6909C178.48 64.6909 177.665 65.0114 177.051 65.6523C176.464 66.2665 176.17 67.2011 176.17 68.4562ZM194.719 79.5518C192.93 79.5518 191.328 79.1112 189.913 78.23C188.524 77.3487 187.416 76.147 186.588 74.6249C185.787 73.1027 185.386 71.367 185.386 69.4176C185.386 67.4682 185.787 65.7324 186.588 64.2102C187.416 62.6881 188.524 61.4864 189.913 60.6052C191.328 59.7239 192.93 59.2833 194.719 59.2833C196.028 59.2833 197.203 59.537 198.244 60.0444C199.312 60.5518 200.18 61.2594 200.848 62.1674C201.515 63.0486 201.889 64.0634 201.969 65.2117V73.6235C201.889 74.7718 201.515 75.7999 200.848 76.7078C200.207 77.5891 199.352 78.2834 198.284 78.7907C197.216 79.2981 196.028 79.5518 194.719 79.5518ZM195.961 74.024C197.27 74.024 198.324 73.5968 199.125 72.7422C199.927 71.861 200.327 70.7528 200.327 69.4176C200.327 68.5096 200.14 67.7085 199.766 67.0142C199.419 66.3199 198.912 65.7858 198.244 65.4119C197.603 65.0114 196.856 64.8111 196.001 64.8111C195.147 64.8111 194.385 65.0114 193.718 65.4119C193.077 65.7858 192.556 66.3199 192.156 67.0142C191.782 67.7085 191.595 68.5096 191.595 69.4176C191.595 70.2988 191.782 71.0866 192.156 71.7809C192.53 72.4752 193.05 73.0226 193.718 73.4232C194.385 73.8238 195.133 74.024 195.961 74.024ZM200.087 79.1512V73.9039L201.008 69.1772L200.087 64.4506V59.6839H206.095V79.1512H200.087ZM213.174 79.1512V51.6326H219.303V79.1512H213.174ZM208.768 64.8912V59.6839H223.709V64.8912H208.768ZM226.409 79.1512V59.6839H232.538V79.1512H226.409ZM229.494 57.0001C228.532 57.0001 227.731 56.6797 227.09 56.0388C226.476 55.3712 226.169 54.57 226.169 53.6354C226.169 52.674 226.476 51.8729 227.09 51.232C227.731 50.5911 228.532 50.2707 229.494 50.2707C230.455 50.2707 231.243 50.5911 231.857 51.232C232.471 51.8729 232.778 52.674 232.778 53.6354C232.778 54.57 232.471 55.3712 231.857 56.0388C231.243 56.6797 230.455 57.0001 229.494 57.0001ZM246.227 79.5919C244.224 79.5919 242.408 79.1512 240.779 78.27C239.177 77.3621 237.909 76.1337 236.974 74.5848C236.039 73.036 235.572 71.3002 235.572 69.3775C235.572 67.4548 236.039 65.7324 236.974 64.2102C237.909 62.6881 239.177 61.4864 240.779 60.6052C242.382 59.6972 244.197 59.2433 246.227 59.2433C248.257 59.2433 250.072 59.6839 251.675 60.5651C253.277 61.4464 254.545 62.6614 255.48 64.2102C256.415 65.7324 256.882 67.4548 256.882 69.3775C256.882 71.3002 256.415 73.036 255.48 74.5848C254.545 76.1337 253.277 77.3621 251.675 78.27C250.072 79.1512 248.257 79.5919 246.227 79.5919ZM246.227 74.024C247.108 74.024 247.883 73.8371 248.55 73.4633C249.218 73.0627 249.725 72.5153 250.072 71.8209C250.446 71.0999 250.633 70.2855 250.633 69.3775C250.633 68.4696 250.446 67.6818 250.072 67.0142C249.699 66.3199 249.178 65.7858 248.51 65.4119C247.869 65.0114 247.108 64.8111 246.227 64.8111C245.372 64.8111 244.611 65.0114 243.944 65.4119C243.276 65.7858 242.755 66.3199 242.382 67.0142C242.008 67.7085 241.821 68.5096 241.821 69.4176C241.821 70.2988 242.008 71.0999 242.382 71.8209C242.755 72.5153 243.276 73.0627 243.944 73.4633C244.611 73.8371 245.372 74.024 246.227 74.024ZM272.791 79.1512V68.0557C272.791 67.0409 272.471 66.2264 271.83 65.6122C271.216 64.9713 270.428 64.6509 269.467 64.6509C268.799 64.6509 268.211 64.7977 267.704 65.0915C267.197 65.3585 266.796 65.7591 266.502 66.2932C266.209 66.8006 266.062 67.388 266.062 68.0557L263.698 66.894C263.698 65.3719 264.032 64.0367 264.7 62.8884C265.367 61.7401 266.289 60.8589 267.464 60.2447C268.665 59.6038 270.014 59.2833 271.509 59.2833C272.951 59.2833 274.22 59.6305 275.315 60.3248C276.436 60.9924 277.318 61.887 277.958 63.0086C278.599 64.1301 278.92 65.3585 278.92 66.6937V79.1512H272.791ZM259.933 79.1512V59.6839H266.062V79.1512H259.933ZM282.856 83.958L285.78 78.5103L287.583 77.9896C287.396 78.3902 287.169 78.724 286.902 78.991C286.635 79.2314 286.328 79.3515 285.98 79.3515C285.206 79.3515 284.498 79.0311 283.857 78.3902C283.216 77.7493 282.896 76.9482 282.896 75.9868C282.896 74.9453 283.243 74.0507 283.937 73.303C284.658 72.5553 285.54 72.1815 286.581 72.1815C287.569 72.1815 288.424 72.5553 289.145 73.303C289.893 74.024 290.266 74.9186 290.266 75.9868C290.266 76.4141 290.186 76.9081 290.026 77.4689C289.866 78.0297 289.545 78.764 289.065 79.672L285.82 85.6003L282.856 83.958ZM302.389 79.1512V50.8715H306.795L308.678 56.5194V79.1512H302.389ZM321.896 79.1512L305.233 57.8012L306.795 50.8715L323.458 72.2215L321.896 79.1512ZM321.896 79.1512L320.214 73.5033V50.8715H326.503V79.1512H321.896ZM340.774 79.5919C338.771 79.5919 336.955 79.1512 335.326 78.27C333.724 77.3621 332.456 76.1337 331.521 74.5848C330.586 73.036 330.119 71.3002 330.119 69.3775C330.119 67.4548 330.586 65.7324 331.521 64.2102C332.456 62.6881 333.724 61.4864 335.326 60.6052C336.929 59.6972 338.744 59.2433 340.774 59.2433C342.803 59.2433 344.619 59.6839 346.222 60.5651C347.824 61.4464 349.092 62.6614 350.027 64.2102C350.962 65.7324 351.429 67.4548 351.429 69.3775C351.429 71.3002 350.962 73.036 350.027 74.5848C349.092 76.1337 347.824 77.3621 346.222 78.27C344.619 79.1512 342.803 79.5919 340.774 79.5919ZM340.774 74.024C341.655 74.024 342.43 73.8371 343.097 73.4633C343.765 73.0627 344.272 72.5153 344.619 71.8209C344.993 71.0999 345.18 70.2855 345.18 69.3775C345.18 68.4696 344.993 67.6818 344.619 67.0142C344.245 66.3199 343.725 65.7858 343.057 65.4119C342.416 65.0114 341.655 64.8111 340.774 64.8111C339.919 64.8111 339.158 65.0114 338.491 65.4119C337.823 65.7858 337.302 66.3199 336.929 67.0142C336.555 67.7085 336.368 68.5096 336.368 69.4176C336.368 70.2988 336.555 71.0999 336.929 71.8209C337.302 72.5153 337.823 73.0627 338.491 73.4633C339.158 73.8371 339.919 74.024 340.774 74.024ZM15.5418 129.662C13.4322 129.662 11.4694 129.302 9.65356 128.581C7.86438 127.833 6.28883 126.792 4.92692 125.456C3.59171 124.121 2.55024 122.572 1.80253 120.81C1.05481 119.021 0.680951 117.098 0.680951 115.042C0.680951 112.985 1.05481 111.076 1.80253 109.314C2.55024 107.524 3.59171 105.976 4.92692 104.667C6.26213 103.359 7.82432 102.344 9.61351 101.623C11.4294 100.875 13.3921 100.501 15.5018 100.501C17.7449 100.501 19.7344 100.862 21.4702 101.583C23.2326 102.304 24.7681 103.292 26.0766 104.547L21.8707 108.793C21.123 107.992 20.2151 107.364 19.1469 106.91C18.1054 106.456 16.8904 106.229 15.5018 106.229C14.2734 106.229 13.1385 106.443 12.097 106.87C11.0822 107.271 10.201 107.858 9.45328 108.633C8.73227 109.407 8.15813 110.342 7.73086 111.437C7.3303 112.531 7.13001 113.733 7.13001 115.042C7.13001 116.377 7.3303 117.592 7.73086 118.687C8.15813 119.782 8.73227 120.716 9.45328 121.491C10.201 122.265 11.0822 122.866 12.097 123.293C13.1385 123.721 14.2734 123.934 15.5018 123.934C16.9438 123.934 18.1989 123.707 19.2671 123.253C20.3352 122.799 21.2565 122.172 22.031 121.371L26.2769 125.617C24.915 126.872 23.3528 127.86 21.5903 128.581C19.8546 129.302 17.8384 129.662 15.5418 129.662ZM38.0829 129.662C36.0801 129.662 34.2642 129.222 32.6352 128.34C31.033 127.432 29.7645 126.204 28.8299 124.655C27.8952 123.106 27.4279 121.371 27.4279 119.448C27.4279 117.525 27.8952 115.803 28.8299 114.281C29.7645 112.758 31.033 111.557 32.6352 110.676C34.2375 109.768 36.0534 109.314 38.0829 109.314C40.1124 109.314 41.9283 109.754 43.5305 110.635C45.1328 111.517 46.4012 112.732 47.3359 114.281C48.2705 115.803 48.7379 117.525 48.7379 119.448C48.7379 121.371 48.2705 123.106 47.3359 124.655C46.4012 126.204 45.1328 127.432 43.5305 128.34C41.9283 129.222 40.1124 129.662 38.0829 129.662ZM38.0829 124.094C38.9641 124.094 39.7386 123.907 40.4062 123.534C41.0738 123.133 41.5811 122.586 41.9283 121.891C42.3022 121.17 42.4891 120.356 42.4891 119.448C42.4891 118.54 42.3022 117.752 41.9283 117.085C41.5544 116.39 41.0337 115.856 40.3661 115.482C39.7252 115.082 38.9641 114.881 38.0829 114.881C37.2284 114.881 36.4673 115.082 35.7997 115.482C35.1321 115.856 34.6113 116.39 34.2375 117.085C33.8636 117.779 33.6767 118.58 33.6767 119.488C33.6767 120.369 33.8636 121.17 34.2375 121.891C34.6113 122.586 35.1321 123.133 35.7997 123.534C36.4673 123.907 37.2284 124.094 38.0829 124.094ZM60.0807 129.622C58.2381 129.622 56.5958 129.182 55.1538 128.3C53.7384 127.419 52.6169 126.217 51.789 124.695C50.9879 123.173 50.5873 121.437 50.5873 119.488C50.5873 117.539 50.9879 115.803 51.789 114.281C52.6169 112.758 53.7384 111.557 55.1538 110.676C56.5958 109.794 58.2381 109.354 60.0807 109.354C61.4159 109.354 62.6176 109.607 63.6857 110.115C64.7806 110.622 65.6752 111.33 66.3695 112.238C67.0905 113.119 67.4911 114.134 67.5712 115.282V123.494C67.4911 124.642 67.1039 125.683 66.4096 126.618C65.7153 127.526 64.8207 128.26 63.7258 128.821C62.6309 129.355 61.4159 129.622 60.0807 129.622ZM61.1622 124.094C62.0434 124.094 62.8045 123.907 63.4454 123.534C64.0863 123.133 64.5937 122.586 64.9676 121.891C65.3414 121.197 65.5283 120.396 65.5283 119.488C65.5283 118.58 65.3414 117.792 64.9676 117.125C64.6204 116.43 64.113 115.883 63.4454 115.482C62.8045 115.082 62.0568 114.881 61.2023 114.881C60.3477 114.881 59.5867 115.082 58.919 115.482C58.2781 115.883 57.7574 116.43 57.3569 117.125C56.983 117.819 56.7961 118.607 56.7961 119.488C56.7961 120.369 56.983 121.157 57.3569 121.851C57.7307 122.546 58.2514 123.093 58.919 123.494C59.5867 123.894 60.3344 124.094 61.1622 124.094ZM71.2964 129.222H65.288V123.974L66.2093 119.248L65.1678 114.521V100.141H71.2964V129.222ZM85.2251 129.662C83.1155 129.662 81.2328 129.235 79.5771 128.38C77.9482 127.499 76.6664 126.284 75.7317 124.735C74.7971 123.186 74.3298 121.437 74.3298 119.488C74.3298 117.539 74.7837 115.803 75.6917 114.281C76.6263 112.732 77.8814 111.517 79.457 110.635C81.0325 109.754 82.8084 109.314 84.7845 109.314C86.7072 109.314 88.4029 109.728 89.8716 110.555C91.3403 111.383 92.4886 112.531 93.3165 114C94.171 115.469 94.5983 117.151 94.5983 119.047C94.5983 119.394 94.5716 119.768 94.5181 120.169C94.4914 120.543 94.4247 120.983 94.3179 121.491L77.5343 121.531V117.325L91.7142 117.285L89.0705 119.047C89.0438 117.926 88.8702 117.004 88.5498 116.283C88.2293 115.536 87.7486 114.975 87.1077 114.601C86.4935 114.201 85.7325 114 84.8245 114C83.8632 114 83.022 114.227 82.301 114.681C81.6067 115.108 81.0592 115.723 80.6587 116.524C80.2848 117.325 80.0979 118.3 80.0979 119.448C80.0979 120.596 80.2982 121.584 80.6987 122.412C81.126 123.213 81.7135 123.841 82.4612 124.295C83.2356 124.722 84.1436 124.936 85.185 124.936C86.1464 124.936 87.0143 124.775 87.7887 124.455C88.5631 124.108 89.2441 123.6 89.8316 122.933L93.1963 126.298C92.2349 127.419 91.0733 128.26 89.7114 128.821C88.3495 129.382 86.854 129.662 85.2251 129.662ZM105.745 129.222V100.942H110.151L112.034 106.59V129.222H105.745ZM125.253 129.222L108.589 107.872L110.151 100.942L126.815 122.292L125.253 129.222ZM125.253 129.222L123.57 123.574V100.942H129.859V129.222H125.253ZM144.371 129.662C142.261 129.662 140.378 129.235 138.723 128.38C137.094 127.499 135.812 126.284 134.877 124.735C133.943 123.186 133.475 121.437 133.475 119.488C133.475 117.539 133.929 115.803 134.837 114.281C135.772 112.732 137.027 111.517 138.603 110.635C140.178 109.754 141.954 109.314 143.93 109.314C145.853 109.314 147.549 109.728 149.017 110.555C150.486 111.383 151.634 112.531 152.462 114C153.317 115.469 153.744 117.151 153.744 119.047C153.744 119.394 153.717 119.768 153.664 120.169C153.637 120.543 153.57 120.983 153.463 121.491L136.68 121.531V117.325L150.86 117.285L148.216 119.047C148.189 117.926 148.016 117.004 147.695 116.283C147.375 115.536 146.894 114.975 146.253 114.601C145.639 114.201 144.878 114 143.97 114C143.009 114 142.168 114.227 141.447 114.681C140.752 115.108 140.205 115.723 139.804 116.524C139.43 117.325 139.244 118.3 139.244 119.448C139.244 120.596 139.444 121.584 139.844 122.412C140.272 123.213 140.859 123.841 141.607 124.295C142.381 124.722 143.289 124.936 144.331 124.936C145.292 124.936 146.16 124.775 146.934 124.455C147.709 124.108 148.39 123.6 148.977 122.933L152.342 126.298C151.381 127.419 150.219 128.26 148.857 128.821C147.495 129.382 146 129.662 144.371 129.662ZM166.316 129.662C164.206 129.662 162.323 129.235 160.668 128.38C159.039 127.499 157.757 126.284 156.822 124.735C155.888 123.186 155.42 121.437 155.42 119.488C155.42 117.539 155.874 115.803 156.782 114.281C157.717 112.732 158.972 111.517 160.548 110.635C162.123 109.754 163.899 109.314 165.875 109.314C167.798 109.314 169.493 109.728 170.962 110.555C172.431 111.383 173.579 112.531 174.407 114C175.262 115.469 175.689 117.151 175.689 119.047C175.689 119.394 175.662 119.768 175.609 120.169C175.582 120.543 175.515 120.983 175.408 121.491L158.625 121.531V117.325L172.805 117.285L170.161 119.047C170.134 117.926 169.961 117.004 169.64 116.283C169.32 115.536 168.839 114.975 168.198 114.601C167.584 114.201 166.823 114 165.915 114C164.954 114 164.113 114.227 163.392 114.681C162.697 115.108 162.15 115.723 161.749 116.524C161.375 117.325 161.188 118.3 161.188 119.448C161.188 120.596 161.389 121.584 161.789 122.412C162.217 123.213 162.804 123.841 163.552 124.295C164.326 124.722 165.234 124.936 166.276 124.936C167.237 124.936 168.105 124.775 168.879 124.455C169.654 124.108 170.335 123.6 170.922 122.933L174.287 126.298C173.325 127.419 172.164 128.26 170.802 128.821C169.44 129.382 167.945 129.662 166.316 129.662ZM186.939 129.622C185.096 129.622 183.454 129.182 182.012 128.3C180.596 127.419 179.475 126.217 178.647 124.695C177.846 123.173 177.445 121.437 177.445 119.488C177.445 117.539 177.846 115.803 178.647 114.281C179.475 112.758 180.596 111.557 182.012 110.676C183.454 109.794 185.096 109.354 186.939 109.354C188.274 109.354 189.476 109.607 190.544 110.115C191.639 110.622 192.533 111.33 193.227 112.238C193.949 113.119 194.349 114.134 194.429 115.282V123.494C194.349 124.642 193.962 125.683 193.268 126.618C192.573 127.526 191.679 128.26 190.584 128.821C189.489 129.355 188.274 129.622 186.939 129.622ZM188.02 124.094C188.901 124.094 189.662 123.907 190.303 123.534C190.944 123.133 191.452 122.586 191.826 121.891C192.199 121.197 192.386 120.396 192.386 119.488C192.386 118.58 192.199 117.792 191.826 117.125C191.478 116.43 190.971 115.883 190.303 115.482C189.662 115.082 188.915 114.881 188.06 114.881C187.206 114.881 186.445 115.082 185.777 115.482C185.136 115.883 184.615 116.43 184.215 117.125C183.841 117.819 183.654 118.607 183.654 119.488C183.654 120.369 183.841 121.157 184.215 121.851C184.589 122.546 185.109 123.093 185.777 123.494C186.445 123.894 187.192 124.094 188.02 124.094ZM198.154 129.222H192.146V123.974L193.067 119.248L192.026 114.521V100.141H198.154V129.222ZM212.083 129.662C209.973 129.662 208.091 129.235 206.435 128.38C204.806 127.499 203.524 126.284 202.59 124.735C201.655 123.186 201.188 121.437 201.188 119.488C201.188 117.539 201.642 115.803 202.55 114.281C203.484 112.732 204.739 111.517 206.315 110.635C207.89 109.754 209.666 109.314 211.642 109.314C213.565 109.314 215.261 109.728 216.73 110.555C218.198 111.383 219.347 112.531 220.174 114C221.029 115.469 221.456 117.151 221.456 119.047C221.456 119.394 221.43 119.768 221.376 120.169C221.349 120.543 221.283 120.983 221.176 121.491L204.392 121.531V117.325L218.572 117.285L215.928 119.047C215.902 117.926 215.728 117.004 215.408 116.283C215.087 115.536 214.607 114.975 213.966 114.601C213.352 114.201 212.59 114 211.682 114C210.721 114 209.88 114.227 209.159 114.681C208.465 115.108 207.917 115.723 207.517 116.524C207.143 117.325 206.956 118.3 206.956 119.448C206.956 120.596 207.156 121.584 207.557 122.412C207.984 123.213 208.571 123.841 209.319 124.295C210.094 124.722 211.002 124.936 212.043 124.936C213.004 124.936 213.872 124.775 214.647 124.455C215.421 124.108 216.102 123.6 216.69 122.933L220.054 126.298C219.093 127.419 217.931 128.26 216.569 128.821C215.207 129.382 213.712 129.662 212.083 129.662ZM232.706 129.622C230.864 129.622 229.221 129.182 227.779 128.3C226.364 127.419 225.242 126.217 224.414 124.695C223.613 123.173 223.213 121.437 223.213 119.488C223.213 117.539 223.613 115.803 224.414 114.281C225.242 112.758 226.364 111.557 227.779 110.676C229.221 109.794 230.864 109.354 232.706 109.354C234.041 109.354 235.243 109.607 236.311 110.115C237.406 110.622 238.301 111.33 238.995 112.238C239.716 113.119 240.117 114.134 240.197 115.282V123.494C240.117 124.642 239.729 125.683 239.035 126.618C238.341 127.526 237.446 128.26 236.351 128.821C235.256 129.355 234.041 129.622 232.706 129.622ZM233.788 124.094C234.669 124.094 235.43 123.907 236.071 123.534C236.712 123.133 237.219 122.586 237.593 121.891C237.967 121.197 238.154 120.396 238.154 119.488C238.154 118.58 237.967 117.792 237.593 117.125C237.246 116.43 236.738 115.883 236.071 115.482C235.43 115.082 234.682 114.881 233.828 114.881C232.973 114.881 232.212 115.082 231.544 115.482C230.904 115.883 230.383 116.43 229.982 117.125C229.608 117.819 229.421 118.607 229.421 119.488C229.421 120.369 229.608 121.157 229.982 121.851C230.356 122.546 230.877 123.093 231.544 123.494C232.212 123.894 232.96 124.094 233.788 124.094ZM243.922 129.222H237.913V123.974L238.835 119.248L237.793 114.521V100.141H243.922V129.222Z" fill="white"/>
<defs>
<linearGradient id="paint0_linear_32_66" x1="5.03751" y1="85.1597" x2="184.66" y2="85.1597" gradientUnits="userSpaceOnUse">
<stop stop-color="#00F6C9"/>
<stop offset="1" stop-color="#8A38F5"/>
</linearGradient>
</defs>
</svg>
